<svg width="644" height="619" fill="none" xmlns="http://www.w3.org/2000/svg"><path d="M294.764 97.38a197.218 197.218 0 0 1 49.403-.756c4.47.578 9.717.307 13.239 3.636 4.497 4.215 4.726 11.281.521 15.772a11.323 11.323 0 0 1-2.126 1.771c-3.819 2.59-8.529 1.162-12.77.766a178.19 178.19 0 0 0-46.147.693c-5.814.834-11.217-3.204-12.067-9.019a10.7 10.7 0 0 1-.094-1.141c-.427-6.007 4.054-11.233 10.041-11.723ZM311.4 122.242c17.59-.385 35.456-.411 52.623 3.971 7.936 2.12 9.78 14.041 3.403 18.845-2.981 2.975-7.691 2.589-11.536 1.803a173.4 173.4 0 0 0-66.842 0 12.152 12.152 0 0 1-11.061-2.168c-6.351-5.158-3.939-17.037 4.236-18.814a153.155 153.155 0 0 1 29.177-3.637Z" fill="#fff"/><path d="M291.965 150.591c28.438-3.954 57.99-2.98 85.516 5.58 4.762 1.73 10.665 2.975 13.135 7.868 2.892 5.21.995 11.78-4.22 14.672-.277.141-.558.286-.844.411-6.143 2.986-12.198-1.729-18.158-2.98a169.199 169.199 0 0 0-87.949-.245c-6.648 1.376-13.567 6.909-20.299 2.991-5.299-3.105-7.075-9.925-3.97-15.224a11.12 11.12 0 0 1 4.205-4.09 134.023 134.023 0 0 1 32.584-8.983ZM259.381 195.342c.969-5.903 6.544-9.931 12.458-8.951.943.146 1.86.427 2.73.818 4.7 2.198 7.44 7.211 6.758 12.369-.297 10.29 1.156 20.867-2.569 30.829a39.411 39.411 0 0 1-17.293 20.189 109.267 109.267 0 0 0-47.694 81.066 161.44 161.44 0 0 0 .63 24.64 94.452 94.452 0 0 0 12.307 36.44 478.49 478.49 0 0 1 6.471 10.457 106.292 106.292 0 0 0 68.004 44.511 178.973 178.973 0 0 0 24.061 2.261 103.666 103.666 0 0 0 46.72-11.916 163.601 163.601 0 0 0 23.555-16.068 103.513 103.513 0 0 0 33.538-55.599c10.431-43.948-7.049-89.808-44.099-115.651a91.77 91.77 0 0 1-14.224-10.254 37.953 37.953 0 0 1-9.894-17.35c-1.99-7.727-1.042-15.745-1.251-23.623a11.935 11.935 0 0 1 6.466-12.306c5.461-2.632 12.02-.324 14.646 5.126.433.917.756 1.886.917 2.882 1.048 7.341-.344 14.917.756 22.154a17.627 17.627 0 0 0 9.232 11.243c61.695 37.764 81.092 118.382 43.339 180.081a130.623 130.623 0 0 1-19.986 25.108c-19.888 19.872-45.71 32.669-73.553 36.509-49.518 7.664-101.959-16.491-128.672-58.793-36.821-56.614-24.332-131.97 28.771-173.698 5.96-5.237 14.901-8.43 17.225-16.866 1.13-8.498-.12-17.115.651-25.608Z" fill="#fff"/><path d="M298.52 186.964a19.904 19.904 0 0 1 6.831-.688h37.602c5.002-.208 10.551 3.345 10.405 8.941v106.466a34.461 34.461 0 0 1-3.611 14.036c-5.215 12.682-11.619 24.816-17.881 36.946a39.686 39.686 0 0 1-7.602 11.296c-4.387.692-6.112-4.226-8.081-7.18-8.8-16.928-18.814-33.632-23.858-52.139-.411-36.023-.14-72.089-.14-107.873a9.449 9.449 0 0 1 6.335-9.805Zm1.11 114.156c.719 9.722 6.289 18.126 9.868 26.827l2.986 1.011c6.82-.625 13.682-.625 20.512 0l3.132-.917A133.59 133.59 0 0 0 346.673 301c-15.745.12-31.397.12-47.043.12ZM309.258.485C313.051.297 316.683 0 320.408 0c-4.887 8.946-9.92 17.897-14.307 27.135-.042 5.71.38 11.405 1.276 17.058l-9.951.745c-1.1-7.028.891-15.469-4.471-21.039-5.278-6.835-10.321-13.807-15.693-20.611l11.301-1.256c4.236 5.158 7.347 11.155 11.932 15.896 2.86-5.991 5.778-11.66 8.763-17.443ZM330.928 0c10.821.787 21.643 1.824 32.496 2.485 0 2.98 0 5.96-.209 8.759-7.664-.146-15.271-1.777-22.898-1.365-.594 2.563-.871 5.158-1.225 7.778 6.799.845 13.62 1.37 20.455 1.73-.208 2.986-.453 5.966-.666 8.743-6.638-.448-13.234-1.01-19.846-1.59-.412 2.804-.902 5.617-1.287 8.441 7.721 1.225 15.568 1.397 23.378 2.001-.167 2.98-.375 5.96-.635 8.94-10.905-1.098-21.847-1.9-32.788-2.656.969-14.271 2.636-28.688 3.225-43.266ZM251.717 8.211a22.363 22.363 0 0 1 19.434 5.784c8.987 8.862 9.133 23.31.333 32.366-8.732 8.492-24.269 9.222-33.001.333a22.788 22.788 0 0 1-5.007-23.858 23.139 23.139 0 0 1 18.241-14.625Zm-1.579 9.858c-9.3 3.402-10.796 17.058-2.98 22.816 7.414 6.82 21.164.86 20.684-9.358.954-9.102-9.029-17.392-17.704-13.458ZM382.056 10.561c11.17-4.934 24.264-.995 30.86 9.274a259.072 259.072 0 0 1-7.935 5.513c-3.153-4.262-7.717-8.404-13.448-7.66-10.222.735-15.678 14.907-8.612 22.42 4.652 5.575 12.666 4.533 18.569 1.814 1.464 2.506 2.985 4.98 4.501 7.45-10.618 7.279-27.364 4.299-33.632-7.357-5.981-11.358-1.651-25.441 9.697-31.454ZM423.357 17.21l33.122 14.104a1015.435 1015.435 0 0 1-3.549 8.43c-4.053-1.662-8.112-3.429-12.197-5.039-4.204 10.593-8.935 20.883-13.26 31.397a296.852 296.852 0 0 1-9.191-3.918c4.747-10.42 8.946-21.028 13.599-31.464-4.048-1.647-8.076-3.35-12.103-5.013l3.579-8.498ZM183.061 34.565c10.004-3.403 19.2-11.926 30.376-9.665 9.722 2.985 13.01 16.667 6.122 23.863 5.148 3.214 10.405 6.288 15.62 9.477-3.402 1.756-6.861 3.366-10.368 4.908-4.746-2.98-9.55-5.768-14.234-8.758l-6.133 2.99c1.579 4.252 3.507 8.342 5.429 12.463-2.99 1.454-5.971 2.97-8.742 4.278-6.122-13.094-12.526-26.145-18.07-39.556Zm12.703 4.2c1.485 3.605 2.98 7.205 4.59 10.81 5.216-2.13 11.119-3.986 14.068-9.253-1.553-2.725-2.736-6.773-6.617-6.487a58.622 58.622 0 0 0-12.041 4.93ZM464.231 44.068c14.12-4.772 31.121 6.768 30.584 21.972.115 12.301-9.753 22.367-22.054 22.492a20.86 20.86 0 0 1-2.283-.11c-12.426-1.041-21.903-11.55-21.664-24.018a23.136 23.136 0 0 1 15.417-20.336Zm2.647 9.603c-8.159 3.965-11.384 16.526-3.423 22.33 7.722 7.54 21.232.214 21.357-9.878.411-7.039-4.971-13.099-12.02-13.52a12.66 12.66 0 0 0-5.914 1.068ZM143.74 59.631c7.383-4.36 13.823-10.822 22.201-13.145 10.675-2.809 20.544 9.331 17.001 19.314-2.064 6.534-8.498 10.045-13.776 13.755 2.376 3.506 4.767 7.06 7.268 10.52-2.735 1.875-5.45 3.725-8.138 5.632-8.524-11.77-16.246-24.14-24.556-36.076Zm13.5 1.818a376.315 376.315 0 0 0 6.736 10.546c3.637-2.475 8.436-4.345 9.962-8.936.506-2.98-2.178-5.048-3.61-7.304-5.185-.443-9.129 3.042-13.12 5.73l.032-.036ZM294.764 97.38a197.218 197.218 0 0 1 49.403-.756c4.47.578 9.717.307 13.239 3.636 4.497 4.215 4.726 11.281.521 15.772a11.323 11.323 0 0 1-2.126 1.771c-3.819 2.59-8.529 1.162-12.77.766a178.19 178.19 0 0 0-46.147.693c-5.814.834-11.217-3.204-12.067-9.019a10.7 10.7 0 0 1-.094-1.141c-.427-6.007 4.054-11.233 10.041-11.723ZM311.4 122.242c17.59-.385 35.456-.411 52.623 3.971 7.936 2.12 9.78 14.041 3.403 18.845-2.981 2.975-7.691 2.589-11.536 1.803a173.4 173.4 0 0 0-66.842 0 12.152 12.152 0 0 1-11.061-2.168c-6.351-5.158-3.939-17.037 4.236-18.814a153.155 153.155 0 0 1 29.177-3.637Z" fill="#fff"/><path d="M291.965 150.591c28.438-3.954 57.99-2.98 85.516 5.58 4.762 1.73 10.665 2.975 13.135 7.868 2.892 5.21.995 11.78-4.22 14.672-.277.141-.558.286-.844.411-6.143 2.986-12.198-1.729-18.158-2.98a169.199 169.199 0 0 0-87.949-.245c-6.648 1.376-13.567 6.909-20.299 2.991-5.299-3.105-7.075-9.925-3.97-15.224a11.12 11.12 0 0 1 4.205-4.09 134.023 134.023 0 0 1 32.584-8.983ZM277.262 356.15c1.99-7.018 9.29-11.092 16.303-9.112 7.018 1.969 11.103 9.269 9.123 16.287a13.158 13.158 0 0 1-3.178 5.554 16.741 16.741 0 0 1-10.64 4.262 47.752 47.752 0 0 0-3.433 8.956 40.326 40.326 0 0 1 22.987 22.467c3.403-.881 6.769-1.954 10.098-3.116a66.518 66.518 0 0 1 30.303-42.375 67.859 67.859 0 0 1 61.564-4.293 87.601 87.601 0 0 1 18.751 11.603 103.4 103.4 0 0 1-33.543 55.599v-49.581c-7.956.146-16.157-1.073-23.853 1.485-6.294 1.845-12.577 3.705-18.897 5.283.839 6.32 2.657 12.432 4.116 18.637 5.017-.896 9.962-2.084 14.917-3.34 0 14.521-.157 29.074 0 43.589a103.735 103.735 0 0 1-46.726 11.916 71.494 71.494 0 0 1-7.961-43.516c-2.506.735-4.976 1.548-7.461 2.324 4.142 13.505 0 28.125-8.638 38.931a106.294 106.294 0 0 1-68.009-44.511l4.72-8.066-5.252-5.434-5.632 2.991a94.389 94.389 0 0 1-12.312-36.435 20.372 20.372 0 0 1 20.534 4.131 19.548 19.548 0 0 1 4.829 19.117c-.771 2.803-3.178 5.163-3.214 8.112 1.193 1.568 2.589 2.98 3.933 4.476a43.559 43.559 0 0 1 40.604-11.932l3.345-8.258c-5.674-2.735-9.723-9.514-7.378-15.751ZM558.318 298.135c5.668 1.016 11.421 1.615 17.089 2.657-2.157 15.208-4.475 30.391-6.559 45.584 5.663.756 11.29 1.673 16.959 2.293 1.704-13.266 4.048-26.479 5.575-39.76 5.726.407 11.395 1.303 17.058 2.236-1.589 13.39-3.996 26.613-5.58 40.009 5.783 1.078 11.634 1.777 17.433 2.772a7663.62 7663.62 0 0 1 6.716-46.298c5.654.771 11.296 1.688 16.991 2.37-3.131 21.591-6.32 43.177-9.3 64.774-28.594-3.23-56.974-8.086-85.479-11.926 2.777-21.628 6.325-43.089 9.097-64.711ZM0 300.464c30.584 7.664 61.001 15.859 91.528 23.675.917 5.971 1.777 11.853 2.59 17.689-26.828 16.271-53.447 33.209-80.488 49.095-.657-6.679-2.543-13.244-2.366-19.955 5.612-3.746 11.578-6.908 17.361-10.358-1.876-11.936-2.985-23.852-5.518-35.57-6.413-2.621-13.505-3.22-20.095-5.382C1.964 313.26 1.136 306.82 0 300.464Zm41.025 28.687c1.256 7.336 2.293 14.693 3.366 22.097 8.326-5.174 16.965-9.822 25.077-15.277-9.483-2.053-18.783-4.715-28.443-6.82ZM532.533 400.724c4.861-7.987 12.879-15.501 22.779-15.568 12.978-.902 25.071 6.611 30.021 18.642a41.035 41.035 0 0 1 1.282 13.864c12.312-1.313 24.592-2.985 36.94-3.808-3.433 6.497-7.044 12.874-10.378 19.413-10.166 1.271-20.399 2.042-30.595 2.965-2.115-.292-3.256 1.672-4.142 3.204-1.907 3.298-3.579 6.758-5.252 10.196 8.144 4.111 16.048 8.665 24.181 12.849-2.975 5.627-6.107 11.353-9.123 17.074-25.458-13.62-50.951-27.219-76.299-41.047 7.081-12.494 13.484-25.321 20.586-37.784Zm22.779 3.939a16.4 16.4 0 0 0-9.868 8.758c-2.986 5.466-5.971 11.015-8.769 16.491 7.179 3.73 14.078 8.086 21.591 11.149 3.272-7.393 8.347-13.973 10.785-21.721 2.444-7.758-5.992-15.751-13.739-14.677ZM69.681 406.33c5.487-14.375 25.817-19.986 38.072-10.691 13.974 10.3 19.194 29.354 16.751 46.027-5.601-.433-11.208-.985-16.751-1.86l-.902-1.188c1.016-9.722 0-21.498-8.2-27.995-3.283-2.084-7.628-1.094-9.702 2.194a6.995 6.995 0 0 0-1.094 3.772c.776 11.926 6.804 23.602 4.923 35.768-2.115 15.506-22.034 23.858-35.356 16.876-9.488-4.475-14.917-14.067-18.788-23.409-3.991-9.941-3.522-20.867-2.293-31.413 5.966 1.131 11.718 2.381 17.616 3.402a41.087 41.087 0 0 0 1.761 24.296c2.032 4.574 4.976 9.54 10.025 11.17 4.027.412 7.617-2.547 8.018-6.564a7.749 7.749 0 0 0 0-1.475c-.714-12.937-7.93-25.733-4.08-38.91ZM455.463 492.528c16.068-14.74 32.402-29.161 48.528-43.823a142.176 142.176 0 0 1 11.598 13.239c-11.744 9.769-22.743 20.388-34.19 30.501 3.897 4.074 7.534 8.466 11.478 12.536 9.806-8.946 19.586-17.892 29.547-26.557 5.002 2.626 7.774 8.519 12.104 12.255-9.936 9.201-20.252 18.032-30.152 27.28 4.059 4.226 7.899 8.634 11.926 12.937 11.515-10.509 22.967-21.049 34.8-31.152l11.41 13.005c-16.548 14.391-32.788 29.261-48.981 43.964-19.518-21.32-38.546-42.995-58.068-64.185ZM121.159 469.265a44.328 44.328 0 0 1 40.848-1.663c15.313 7.451 27.255 22.92 27.812 40.333-5.96.979-12.306 1.401-18.392 2.532-1.047-8.076-3.663-16.397-9.962-21.945a23.565 23.565 0 0 0-21.107-5.711c-12.16 2.965-21.236 13.119-22.841 25.546a24.476 24.476 0 0 0 10.676 22.321c5.965 4.621 13.598 5.637 20.872 5.611a474.01 474.01 0 0 1 .984 17.439 59.303 59.303 0 0 1-18.308-1.454c-20.69-5.966-36.644-27.557-33.216-49.461a46.727 46.727 0 0 1 22.634-33.548ZM207.805 503.616c20.278 7.721 40.332 16.136 60.6 23.852-1.844 5.45-4.043 10.759-6.169 16.152-14.458-5.33-28.474-11.927-43.193-16.605-1.792 5.194-3.97 10.259-5.757 15.49 12.4 5.153 24.978 9.925 37.451 14.885a317.543 317.543 0 0 0-5.971 15.792c-12.937-4.069-25.191-10.097-38.071-14.416a654.348 654.348 0 0 0-6.382 16.157 4889.183 4889.183 0 0 0 43.224 17.178 244.663 244.663 0 0 1-6.461 16.219c-20.19-8.466-40.697-16.12-60.908-24.472 10.317-26.843 21.232-53.457 31.637-80.232ZM404.158 516.886a46.953 46.953 0 0 1 38.008 1.006c18.684 9.93 27.495 31.876 20.862 51.977a45.453 45.453 0 0 1-26.046 26.822c-10.978 4.418-22.128 8.477-33.001 13.13-10.911-26.682-20.873-53.671-31.788-80.498 10.582-4.226 21.352-8.326 31.965-12.437Zm-7.638 21.706c5.96 15.308 11.931 30.704 18.069 46.053.474 2.36 3.183.683 4.616.349 7.779-2.975 16.522-5.601 21.643-12.754 10.947-13.886 1.376-37.024-15.589-40.552-10.082-2.402-19.345 3.736-28.739 6.904ZM281.29 531.172h17.892a8570.905 8570.905 0 0 0 38.456 52.348c2.095-17.205.328-34.617 1.673-51.858 6.268.302 12.525.542 18.793.453-.907 12.229-.422 24.478-.662 36.733 0 16.511-1.193 33.006-.865 49.544-5.512 0-11.024 0-16.516-.297-12.515-17.205-25.223-34.226-37.743-51.42a2071.46 2071.46 0 0 1-2.985-3.887c-.6 17.887 0 35.982-1.24 53.962h-17.898c1.22-17.016.86-34.132.506-51.19-.448-11.556 1.068-22.941.589-34.388Z" fill="#fff"/><path d="M298.52 186.964a19.904 19.904 0 0 1 6.831-.688h37.602c5.002-.208 10.551 3.345 10.405 8.941v106.466a34.461 34.461 0 0 1-3.611 14.036c-5.215 12.682-11.619 24.816-17.881 36.946a39.686 39.686 0 0 1-7.602 11.296c-4.387.692-6.112-4.226-8.081-7.18-8.8-16.928-18.814-33.632-23.858-52.139-.411-36.023-.14-72.089-.14-107.873a9.449 9.449 0 0 1 6.335-9.805Zm1.11 114.156c.719 9.722 6.289 18.126 9.868 26.827l2.986 1.011c6.82-.625 13.682-.625 20.512 0l3.132-.917A133.59 133.59 0 0 0 346.673 301c-15.745.12-31.397.12-47.043.12ZM298.129 616.756c1.256-17.882.662-35.951 1.256-53.963 1.052 1.261 2.032 2.574 2.985 3.887l-2.506-.63c.683 17.141-.896 34.293-.719 51.456a267.46 267.46 0 0 1-19.825 0c.719-17.355 0-34.768 1.318-52.061.355 17.059.714 34.169-.505 51.196 6.075.026 12.041.026 17.996.115ZM294.764 97.38a197.218 197.218 0 0 1 49.403-.756c4.47.578 9.717.307 13.239 3.636 4.497 4.215 4.726 11.281.521 15.772a11.323 11.323 0 0 1-2.126 1.771c-3.819 2.59-8.529 1.162-12.77.766a178.19 178.19 0 0 0-46.147.693c-5.814.834-11.217-3.204-12.067-9.019a10.7 10.7 0 0 1-.094-1.141c-.427-6.007 4.054-11.233 10.041-11.723ZM311.4 122.242c17.59-.385 35.456-.411 52.623 3.971 7.936 2.12 9.78 14.041 3.403 18.845-2.981 2.975-7.691 2.589-11.536 1.803a173.4 173.4 0 0 0-66.842 0 12.152 12.152 0 0 1-11.061-2.168c-6.351-5.158-3.939-17.037 4.236-18.814a153.155 153.155 0 0 1 29.177-3.637Z" fill="#fff"/><path d="M291.965 150.591c28.438-3.954 57.99-2.98 85.516 5.58 4.762 1.73 10.665 2.975 13.135 7.868 2.892 5.21.995 11.78-4.22 14.672-.277.141-.558.286-.844.411-6.143 2.986-12.198-1.729-18.158-2.98a169.199 169.199 0 0 0-87.949-.245c-6.648 1.376-13.567 6.909-20.299 2.991-5.299-3.105-7.075-9.925-3.97-15.224a11.12 11.12 0 0 1 4.205-4.09 134.023 134.023 0 0 1 32.584-8.983ZM277.262 356.15c1.99-7.018 9.29-11.092 16.303-9.112 7.018 1.969 11.103 9.269 9.123 16.287a13.158 13.158 0 0 1-3.178 5.554 16.741 16.741 0 0 1-10.64 4.262 47.752 47.752 0 0 0-3.433 8.956 40.326 40.326 0 0 1 22.987 22.467c3.403-.881 6.769-1.954 10.098-3.116a66.518 66.518 0 0 1 30.303-42.375 67.859 67.859 0 0 1 61.564-4.293 87.601 87.601 0 0 1 18.751 11.603 103.4 103.4 0 0 1-33.543 55.599v-49.581c-7.956.146-16.157-1.073-23.853 1.485-6.294 1.845-12.577 3.705-18.897 5.283.839 6.32 2.657 12.432 4.116 18.637 5.017-.896 9.962-2.084 14.917-3.34 0 14.521-.157 29.074 0 43.589a103.735 103.735 0 0 1-46.726 11.916 71.494 71.494 0 0 1-7.961-43.516c-2.506.735-4.976 1.548-7.461 2.324 4.142 13.505 0 28.125-8.638 38.931a106.294 106.294 0 0 1-68.009-44.511l4.72-8.066-5.252-5.434-5.632 2.991a94.389 94.389 0 0 1-12.312-36.435 20.372 20.372 0 0 1 20.534 4.131 19.548 19.548 0 0 1 4.829 19.117c-.771 2.803-3.178 5.163-3.214 8.112 1.193 1.568 2.589 2.98 3.933 4.476a43.559 43.559 0 0 1 40.604-11.932l3.345-8.258c-5.674-2.735-9.723-9.514-7.378-15.751Z" fill="#fff"/><path d="M298.52 186.964a19.904 19.904 0 0 1 6.831-.688h37.602c5.002-.208 10.551 3.345 10.405 8.941v106.466a34.461 34.461 0 0 1-3.611 14.036c-5.215 12.682-11.619 24.816-17.881 36.946a39.686 39.686 0 0 1-7.602 11.296c-4.387.692-6.112-4.226-8.081-7.18-8.8-16.928-18.814-33.632-23.858-52.139-.411-36.023-.14-72.089-.14-107.873a9.449 9.449 0 0 1 6.335-9.805Zm1.11 114.156c.719 9.722 6.289 18.126 9.868 26.827l2.986 1.011c6.82-.625 13.682-.625 20.512 0l3.132-.917A133.59 133.59 0 0 0 346.673 301c-15.745.12-31.397.12-47.043.12ZM294.764 97.38a197.218 197.218 0 0 1 49.403-.756c4.47.578 9.717.307 13.239 3.636 4.497 4.215 4.726 11.281.521 15.772a11.323 11.323 0 0 1-2.126 1.771c-3.819 2.59-8.529 1.162-12.77.766a178.19 178.19 0 0 0-46.147.693c-5.814.834-11.217-3.204-12.067-9.019a10.7 10.7 0 0 1-.094-1.141c-.427-6.007 4.054-11.233 10.041-11.723ZM311.4 122.242c17.59-.385 35.456-.411 52.623 3.971 7.936 2.12 9.78 14.041 3.403 18.845-2.981 2.975-7.691 2.589-11.536 1.803a173.4 173.4 0 0 0-66.842 0 12.152 12.152 0 0 1-11.061-2.168c-6.351-5.158-3.939-17.037 4.236-18.814a153.155 153.155 0 0 1 29.177-3.637Z" fill="#fff"/><path d="M291.965 150.591c28.438-3.954 57.99-2.98 85.516 5.58 4.762 1.73 10.665 2.975 13.135 7.868 2.892 5.21.995 11.78-4.22 14.672-.277.141-.558.286-.844.411-6.143 2.986-12.198-1.729-18.158-2.98a169.199 169.199 0 0 0-87.949-.245c-6.648 1.376-13.567 6.909-20.299 2.991-5.299-3.105-7.075-9.925-3.97-15.224a11.12 11.12 0 0 1 4.205-4.09 134.023 134.023 0 0 1 32.584-8.983ZM277.262 356.15c1.99-7.018 9.29-11.092 16.303-9.112 7.018 1.969 11.103 9.269 9.123 16.287a13.158 13.158 0 0 1-3.178 5.554 16.741 16.741 0 0 1-10.64 4.262 47.752 47.752 0 0 0-3.433 8.956 40.326 40.326 0 0 1 22.987 22.467c3.403-.881 6.769-1.954 10.098-3.116a66.518 66.518 0 0 1 30.303-42.375 67.859 67.859 0 0 1 61.564-4.293 87.601 87.601 0 0 1 18.751 11.603 103.4 103.4 0 0 1-33.543 55.599v-49.581c-7.956.146-16.157-1.073-23.853 1.485-6.294 1.845-12.577 3.705-18.897 5.283.839 6.32 2.657 12.432 4.116 18.637 5.017-.896 9.962-2.084 14.917-3.34 0 14.521-.157 29.074 0 43.589a103.735 103.735 0 0 1-46.726 11.916 71.494 71.494 0 0 1-7.961-43.516c-2.506.735-4.976 1.548-7.461 2.324 4.142 13.505 0 28.125-8.638 38.931a106.294 106.294 0 0 1-68.009-44.511l4.72-8.066-5.252-5.434-5.632 2.991a94.389 94.389 0 0 1-12.312-36.435 20.372 20.372 0 0 1 20.534 4.131 19.548 19.548 0 0 1 4.829 19.117c-.771 2.803-3.178 5.163-3.214 8.112 1.193 1.568 2.589 2.98 3.933 4.476a43.559 43.559 0 0 1 40.604-11.932l3.345-8.258c-5.674-2.735-9.723-9.514-7.378-15.751Z" fill="#fff"/><path d="M298.52 186.964a19.904 19.904 0 0 1 6.831-.688h37.602c5.002-.208 10.551 3.345 10.405 8.941v106.466a34.461 34.461 0 0 1-3.611 14.036c-5.215 12.682-11.619 24.816-17.881 36.946a39.686 39.686 0 0 1-7.602 11.296c-4.387.692-6.112-4.226-8.081-7.18-8.8-16.928-18.814-33.632-23.858-52.139-.411-36.023-.14-72.089-.14-107.873a9.449 9.449 0 0 1 6.335-9.805Zm1.11 114.156c.719 9.722 6.289 18.126 9.868 26.827l2.986 1.011c6.82-.625 13.682-.625 20.512 0l3.132-.917A133.59 133.59 0 0 0 346.673 301c-15.745.12-31.397.12-47.043.12Z" fill="#fff"/><path d="M277.262 356.15c1.99-7.018 9.29-11.092 16.303-9.112 7.018 1.969 11.103 9.269 9.123 16.287a13.158 13.158 0 0 1-3.178 5.554 16.741 16.741 0 0 1-10.64 4.262 47.752 47.752 0 0 0-3.433 8.956 40.326 40.326 0 0 1 22.987 22.467c3.403-.881 6.769-1.954 10.098-3.116a66.518 66.518 0 0 1 30.303-42.375 67.859 67.859 0 0 1 61.564-4.293 87.601 87.601 0 0 1 18.751 11.603 103.4 103.4 0 0 1-33.543 55.599v-49.581c-7.956.146-16.157-1.073-23.853 1.485-6.294 1.845-12.577 3.705-18.897 5.283.839 6.32 2.657 12.432 4.116 18.637 5.017-.896 9.962-2.084 14.917-3.34 0 14.521-.157 29.074 0 43.589a103.735 103.735 0 0 1-46.726 11.916 71.494 71.494 0 0 1-7.961-43.516c-2.506.735-4.976 1.548-7.461 2.324 4.142 13.505 0 28.125-8.638 38.931a106.294 106.294 0 0 1-68.009-44.511l4.72-8.066-5.252-5.434-5.632 2.991a94.389 94.389 0 0 1-12.312-36.435 20.372 20.372 0 0 1 20.534 4.131 19.548 19.548 0 0 1 4.829 19.117c-.771 2.803-3.178 5.163-3.214 8.112 1.193 1.568 2.589 2.98 3.933 4.476a43.559 43.559 0 0 1 40.604-11.932l3.345-8.258c-5.674-2.735-9.723-9.514-7.378-15.751Z" fill="#fff"/></svg>