<svg width="380" height="186" viewBox="0 0 380 186" fill="none" xmlns="http://www.w3.org/2000/svg">
<path fill-rule="evenodd" clip-rule="evenodd" d="M118.928 0.857004C118.68 0.957004 118.422 1.184 118.354 1.362C118.285 1.539 116.807 3.83 115.067 6.452C113.328 9.074 111.785 11.435 111.638 11.699C110.484 13.775 110.384 13.675 113.617 13.675H116.264L119.53 10.506C121.326 8.763 123.493 6.673 124.345 5.861C126.179 4.114 126.222 3.71 124.643 3.031C124.096 2.796 122.719 2.163 121.584 1.625C120.449 1.088 119.488 0.654003 119.449 0.661003C119.411 0.669003 119.176 0.757004 118.928 0.857004ZM148.263 1.519C147.91 1.725 147.889 3.518 147.889 34.406V67.076L148.477 67.302C149.51 67.7 153.954 67.461 154.488 66.979L154.937 66.572L154.934 34.411C154.932 16.722 154.86 2.144 154.774 2.014C154.305 1.312 149.276 0.929003 148.263 1.519ZM71.691 3.04C71.233 3.498 71.34 10.232 71.808 10.425C72.295 10.625 78.689 10.625 79.176 10.425C79.777 10.178 79.741 3.328 79.137 3.004C78.534 2.682 72.018 2.713 71.691 3.04ZM2.02599 4.602C1.62799 5.648 1.74499 66.445 2.14599 67.018L2.47899 67.492H13.978C25.31 67.492 29.585 67.292 32.109 66.643C37.97 65.137 39.196 64.502 37.852 63.665C37.588 63.501 37.035 63.096 36.624 62.766C36.213 62.436 35.114 61.571 34.182 60.844L32.488 59.523L30.583 59.888C25.906 60.784 9.94299 61.055 9.50899 60.245C9.36099 59.967 9.28799 51.89 9.28799 35.584V11.336L9.80299 10.998C11.082 10.161 28.862 10.859 31.819 11.863C40.873 14.938 45.921 19.59 48.568 27.297C50.988 34.345 49.918 43.976 46.107 49.446C45.458 50.378 45.321 51.509 45.753 52.36C46.112 53.068 47.943 57.425 47.943 57.573C47.943 57.641 48.166 58.194 48.439 58.803C48.854 59.729 49.77 62.02 50.518 64.002C50.702 64.488 51.863 65.454 56.379 68.873C61.325 72.618 61.351 72.736 58.036 76.21C57.683 76.58 57.69 77.316 58.047 77.316C58.31 77.316 59.887 76.721 61.649 75.956C62.781 75.464 62.935 74.514 62.148 72.883C61.438 71.412 60.97 70.268 60.97 70.003C60.97 69.844 60.882 69.622 60.775 69.51C60.667 69.399 60.242 68.443 59.83 67.385C59.418 66.328 58.779 64.743 58.41 63.862C58.041 62.981 57.357 61.347 56.889 60.231C56.422 59.115 55.907 57.914 55.744 57.562C53.27 52.213 53.25 52.099 54.352 49.811C54.82 48.837 55.204 47.978 55.204 47.903C55.204 47.828 55.381 47.375 55.598 46.898C58.27 41.016 58.265 30.625 55.588 24.246C51.472 14.437 44.416 8.213 34.168 5.352C30.259 4.26 29.331 4.199 15.427 4.119L2.23799 4.044L2.02599 4.602ZM187.896 19.971C182.617 20.929 177.278 23.943 173.962 27.838C166.167 36.995 166.044 50.864 173.677 60.071C174.431 60.981 175.112 61.727 175.19 61.728C175.268 61.73 175.716 62.091 176.186 62.531C183.976 69.827 197.342 70.531 206.405 64.122C216.721 56.829 219.738 42.488 213.308 31.307C208.421 22.81 197.963 18.144 187.896 19.971ZM243.778 20.064C235.679 21.885 229.614 27.375 227.359 34.928C220.661 57.361 247.198 73.474 264.002 57.177C266.381 54.87 266.417 54.895 266.412 58.89C266.397 70.217 260.92 75.714 249.651 75.714C243.199 75.714 238.955 74.465 233.432 70.942C231.749 69.868 231.513 70.028 229.611 73.519C228.695 75.199 228.672 75.392 229.31 75.963C229.805 76.406 233.18 78.384 233.441 78.384C233.521 78.384 233.982 78.565 234.465 78.785C236.713 79.814 237.522 80.081 241.963 81.263C245.165 82.115 254.411 82.109 257.233 81.252C257.879 81.056 258.888 80.755 259.475 80.584C265.359 78.865 270.386 74.06 272.277 68.347C273.613 64.312 273.536 65.798 273.619 42.568C273.708 17.508 274.189 20.509 270.087 20.509C266.366 20.509 266.374 20.502 266.418 23.895C266.463 27.302 266.459 27.34 266.085 27.483C265.862 27.569 265.179 27.051 264.002 25.904C258.721 20.755 250.835 18.478 243.778 20.064ZM306.388 19.901C287.072 22.667 279.131 47.699 293.188 61.513C307.357 75.438 331.462 67.518 334.557 47.921C337.201 31.183 323.408 17.464 306.388 19.901ZM357.539 20.078C350.425 21.361 345.868 26.259 345.69 32.815C345.489 40.213 348.923 43.182 362.091 46.992C370.491 49.423 373.538 52.308 372.323 56.684C370.417 63.548 358.769 63.993 348.858 57.581C346.771 56.231 346.869 56.191 344.633 59.334C343.134 61.44 343.418 61.906 347.676 64.32C362.126 72.513 378.642 67.705 379.328 55.106C379.685 48.556 375.686 43.997 367.43 41.541C355.125 37.881 352.425 36.225 352.498 32.383C352.633 25.217 363.624 23.666 373.468 29.424C375.224 30.451 375.406 30.324 377.47 26.635C378.381 25.006 378.234 24.688 376.034 23.544C370.387 20.606 362.652 19.156 357.539 20.078ZM107.526 20.213C103.618 20.905 98.636 22.357 96.655 23.381C95.746 23.852 95.791 24.878 96.837 27.496C97.643 29.516 97.939 29.71 99.257 29.08C102.799 27.387 107.802 26.274 111.862 26.276C120.232 26.281 125.128 30.35 125.61 37.704C125.78 40.3 125.689 40.377 123.164 39.771C115.417 37.91 106.879 38.057 101.095 40.151C87.977 44.899 88.25 62.65 101.511 67.16C109.385 69.838 117.716 68.25 123.391 62.989C125.608 60.934 125.678 60.971 125.682 64.171C125.687 67.438 125.748 67.492 129.362 67.492C131.524 67.492 131.844 67.443 132.266 67.05L132.74 66.609L132.665 51.621C132.584 35.667 132.505 34.255 131.533 31.436C129.591 25.799 125.997 22.511 119.913 20.807C117.949 20.257 109.551 19.854 107.526 20.213ZM71.981 20.983C71.5 21.669 71.471 66.314 71.951 66.971C72.307 67.459 77.236 67.713 78.322 67.299L78.909 67.076V44.049C78.909 26.423 78.849 20.961 78.653 20.765C78.125 20.237 72.372 20.425 71.981 20.983ZM194.659 26.07C211.272 28.691 214.956 52.777 199.892 60.279C192.326 64.046 182.858 61.412 178.33 54.279C169.971 41.111 180.015 23.76 194.659 26.07ZM252.207 26.071C269.879 28.625 271.993 50.984 255.097 56.641C248.245 58.935 239.157 55.783 235.998 50.015C229.246 37.691 238.457 24.084 252.207 26.071ZM312.813 26.084C320.196 27.23 326.006 33.345 327.294 41.324C329.742 56.503 313.828 67.414 301.226 59.196C297.784 56.951 295.088 53.035 293.929 48.597C290.691 36.195 300.743 24.212 312.813 26.084ZM117.137 44.012C118.487 44.135 120.169 44.369 120.874 44.532C121.579 44.696 122.665 44.932 123.287 45.056C123.91 45.18 124.703 45.429 125.049 45.608L125.679 45.934V48.986C125.679 51.151 125.58 52.376 125.339 53.198C121.702 65.594 98.877 65.761 98.877 53.392C98.877 46.112 105.096 42.917 117.137 44.012ZM86.613 82.743C86.433 82.96 86.367 85.054 86.378 90.304C86.396 99.219 86.987 98.245 81.563 98.245C76.146 98.245 76.56 97.861 76.56 102.896C76.56 108.053 76.146 107.642 81.33 107.642C84.699 107.642 85.52 107.701 85.909 107.974L86.384 108.307V130.486C86.384 155.932 86.372 155.773 88.66 159.856C91.672 165.229 99.463 168.877 106.543 168.227C112.562 167.675 117.612 166.105 118.014 164.661C118.199 163.996 118.251 157.558 118.075 157.099C117.901 156.646 117.11 156.673 115.895 157.172C109.635 159.742 102.055 158.963 99.095 155.445C98.093 154.254 97.072 151.799 96.85 150.044C96.535 147.565 96.553 108.319 96.868 107.938C97.072 107.693 98.869 107.642 107.298 107.642C115.405 107.642 117.561 107.584 117.868 107.359C118.247 107.083 118.423 99.703 118.073 98.791C117.878 98.283 117.226 98.251 107.072 98.248C98.658 98.246 97.075 98.197 96.858 97.937C96.67 97.71 96.609 95.726 96.626 90.378C96.647 83.983 96.609 83.087 96.307 82.785C95.826 82.304 87.009 82.266 86.613 82.743ZM136.731 82.672C136.196 82.984 136.159 92.528 136.69 93.286C137.141 93.93 147.39 94.041 147.917 93.408C148.4 92.825 148.473 83.27 147.998 82.794C147.58 82.377 137.427 82.267 136.731 82.672ZM40.745 83.136C40.505 83.4 40.041 84.049 39.715 84.577C39.39 85.106 38.048 87.172 36.734 89.169C33.264 94.441 32.964 93.975 39.817 93.971L45.06 93.967L48.21 90.962C52.2 87.155 52.183 87.4 48.584 85.751C47.35 85.185 45.348 84.258 44.134 83.689C41.625 82.514 41.353 82.469 40.745 83.136ZM28.082 97.291C26.966 97.444 25.668 97.68 25.199 97.816C23.965 98.172 21.25 99.101 20.846 99.306C20.656 99.402 19.779 99.822 18.899 100.238C3.87999 107.336 -3.60801 127.079 1.91499 145.015C3.75399 150.983 8.32199 157.601 13.329 161.549C27.323 172.583 50.605 170.229 61.727 156.656C62.635 155.548 62.618 155.5 60.754 153.854C60.109 153.285 58.922 152.216 58.114 151.48C56.346 149.866 56.152 149.85 54.723 151.196C53.384 152.457 51.029 154.412 50.849 154.412C50.778 154.412 50.255 154.746 49.687 155.154C47.665 156.607 45.084 157.715 40.895 158.931C35.967 160.362 28.532 159.423 23.406 156.723C18.475 154.125 15.049 150.341 12.794 145.001C11.563 142.084 10.651 138.131 10.998 137.216L11.2 136.686H37.463C65.413 136.686 64.692 136.713 64.958 135.652C65.561 133.25 64.308 122.735 63.02 119.388C62.862 118.977 62.521 118.064 62.262 117.359C59.421 109.624 54.243 103.636 47.487 100.276C46.622 99.846 45.759 99.412 45.568 99.312C45.089 99.061 42.331 98.157 40.789 97.746C37.848 96.963 32.002 96.754 28.082 97.291ZM196.795 97.288C194.16 97.607 190.822 98.473 189 99.31C177.377 104.649 171.129 111.855 167.794 123.766C166.862 127.094 166.353 134.679 166.893 137.183C167.024 137.79 167.219 138.96 167.325 139.783C167.7 142.67 170.284 149.416 172.068 152.164C178.025 161.34 186.083 166.53 197.115 168.293C198.772 168.558 205.069 168.558 206.726 168.293C215.716 166.856 220.822 164.223 227.821 157.416C230.038 155.259 230.07 155.382 226.432 152.011C223.096 148.919 223.348 148.982 221.461 150.78C220.278 151.907 217.747 153.945 216.756 154.569C214.657 155.889 212.752 156.974 212.533 156.974C212.386 156.974 212.077 157.103 211.845 157.26C210.4 158.239 205.39 159.324 202.31 159.324C184.772 159.324 172.926 141.017 178.887 123.125C184.317 106.827 203.584 100.971 216.898 111.572C217.207 111.818 217.779 112.26 218.17 112.554C218.56 112.847 219.556 113.721 220.384 114.496C222.615 116.585 222.256 116.682 225.766 113.043C229.864 108.794 229.96 109.402 224.436 104.648C223.268 103.643 218.594 100.594 218.221 100.594C218.139 100.594 217.682 100.412 217.204 100.188C215.323 99.309 214.783 99.092 213.239 98.597C208.343 97.029 202.669 96.577 196.795 97.288ZM270.687 97.297C249.187 100.004 235.149 122.582 241.775 143.797C243.711 149.995 246.055 153.681 252.057 159.964C252.858 160.803 252.885 161.712 252.171 163.778C251.982 164.323 251.757 165.106 251.67 165.517C251.582 165.928 250.822 168.811 249.979 171.924C246.415 185.091 246.674 183.557 247.923 184.11C248.468 184.351 249.512 184.681 250.244 184.844C250.975 185.007 251.79 185.205 252.054 185.284C253.017 185.572 252.465 184.618 250.584 182.74C248.463 180.623 248.353 180.902 253.19 176.086C257.18 172.113 258.087 170.972 258.087 169.926C258.087 169.64 258.269 168.795 258.491 168.049C258.713 167.302 259.15 165.73 259.462 164.556C260.274 161.503 260.912 159.169 261.608 156.702C262.048 155.146 261.938 154.824 260.648 153.877C257.42 151.507 253.874 146.393 252.283 141.812C249.76 134.547 250.731 124.141 254.454 118.533C254.649 118.24 255.252 117.327 255.795 116.505C264.155 103.839 284.12 102.746 294.071 114.408C307.434 130.069 300.531 154.204 281.425 158.63C280.756 158.785 272.481 166.717 271.929 167.733C271.085 169.285 281.291 168.637 287.025 166.774C298.739 162.969 308.639 152.346 310.617 141.458C310.72 140.889 310.953 139.655 311.134 138.715C311.495 136.836 311.587 129.111 311.271 127.183C310.29 121.204 308.44 116.63 304.92 111.486C301.175 106.014 294.198 100.91 287.452 98.707C282.432 97.069 276.481 96.568 270.687 97.297ZM346.928 97.31C345.747 97.461 342.145 98.29 341.91 98.465C341.792 98.552 341.375 98.692 340.983 98.776C337.512 99.518 332.237 103.64 330.009 107.349C328.004 110.687 327.615 112.245 327.617 116.932L327.619 120.989L328.316 122.731C330.175 127.385 334.597 131.218 340.842 133.59C342.875 134.362 346.166 135.493 347.035 135.718C362.957 139.841 368.118 143.565 367.031 150.148C365.159 161.486 347.313 162.698 332.001 152.526C329.238 150.691 329.287 150.681 327.371 153.45C323.955 158.388 324.098 158.032 325.146 158.979C334.487 167.418 354.309 170.768 365.181 165.746C377.456 160.075 381.069 144.916 372.239 136.137C368.571 132.491 364.755 130.714 353.015 127.186C340.486 123.422 336.162 119.747 337.61 114.095C339.877 105.244 352.951 103.487 366.406 110.224C367.615 110.829 368.845 111.491 369.139 111.693C370.731 112.792 371.214 112.35 374.279 107.001C374.447 106.707 374.691 106.323 374.821 106.147C375.715 104.938 375.139 104.303 371.475 102.464C363.424 98.423 353.878 96.419 346.928 97.31ZM137.852 98.393C136.974 98.707 136.998 97.77 136.998 132.442C136.998 153.536 137.074 165.903 137.206 166.25L137.414 166.798H142.111C146.535 166.798 146.819 166.774 147.028 166.385C147.434 165.625 147.325 99.303 146.916 98.72C146.592 98.256 139 97.983 137.852 98.393ZM35.877 106.034C45.368 107.37 51.837 114.429 54.036 125.848C54.444 127.966 54.355 128.676 53.658 128.863C53.392 128.934 43.783 128.993 32.304 128.995L11.434 128.998L11.096 128.482C10.809 128.044 10.794 127.763 10.996 126.613C13.404 112.915 23.782 104.331 35.877 106.034Z" fill="#0D4178"/>
<path fill-rule="evenodd" clip-rule="evenodd" d="M38.596 56.718C37.847 57.243 35.317 58.45 34.38 58.73C33.332 59.044 32.692 59.489 32.872 59.78C33.003 59.991 36.468 62.687 37.707 63.541C38.048 63.776 38.328 64.078 38.33 64.213C38.331 64.347 38.476 64.512 38.651 64.579C38.963 64.699 45.486 69.587 46.788 70.677C47.151 70.981 47.67 71.374 47.94 71.55C48.211 71.726 48.837 72.207 49.333 72.618C50.559 73.635 54.262 76.494 54.865 76.889C55.134 77.065 55.609 77.389 55.921 77.608C56.667 78.134 57.767 77.762 57.767 76.985C57.767 76.714 57.888 76.365 58.036 76.21C61.351 72.736 61.325 72.618 56.379 68.873C52.123 65.651 50.748 64.529 50.51 64.084C50.391 63.86 50.085 63.611 49.831 63.531C49.401 63.394 44.959 60.11 41.708 57.524C40.178 56.308 39.451 56.119 38.596 56.718ZM264.551 164.663C261.261 167.951 258.424 170.642 258.247 170.642C258.07 170.642 257.814 170.911 257.678 171.24C257.542 171.568 255.56 173.705 253.274 175.989C248.327 180.931 248.456 180.588 250.69 182.844C251.555 183.718 252.326 184.631 252.403 184.873C252.48 185.115 252.795 185.428 253.103 185.568C253.76 185.868 253.341 186.254 264.258 175.289C267.97 171.56 271.125 168.509 271.268 168.508C271.411 168.507 271.661 168.253 271.823 167.943C271.985 167.633 274.031 165.459 276.368 163.112C278.705 160.764 280.426 158.915 280.191 159.002C279.198 159.369 273.588 159.39 272.352 159.031C271.694 158.839 271.015 158.683 270.844 158.683C270.672 158.683 267.84 161.374 264.551 164.663Z" fill="#ECAE08"/>
</svg>
