<svg width="629" height="870" viewBox="0 0 629 870" fill="none" xmlns="http://www.w3.org/2000/svg">
<path d="M266.984 63.8201V103.351C266.984 116.884 262.984 129.408 256.257 139.461C246.619 153.888 231.375 163.241 214.309 163.241C197.237 163.241 181.995 153.888 172.355 139.461C165.629 129.408 161.628 116.884 161.628 103.351V63.8201C161.628 30.8815 185.335 3.93613 214.309 3.93613C228.796 3.93613 241.961 10.6708 251.511 21.5268C261.055 32.3775 266.984 47.3495 266.984 63.8201Z" fill="#F2C89C"/>
<path d="M307.328 163.225V163.242L307.224 163.208L307.328 163.225Z" fill="#35507C"/>
<path d="M307.574 163.22C307.497 163.225 307.416 163.225 307.328 163.225C307.328 163.16 307.328 163.093 307.333 163.028C307.41 163.1 307.486 163.16 307.574 163.22Z" fill="#35507C"/>
<path d="M306.967 163.133L307.224 163.209L304.782 162.859C305.503 162.827 306.24 162.909 306.967 163.133Z" fill="#35507C"/>
<path d="M459.671 249.966C458.856 250.862 457.796 251.513 456.639 251.845C457.278 251.633 457.895 251.31 458.463 250.879L459.671 249.966Z" fill="#35507C"/>
<path d="M56.1038 275.285L124.312 217.452V355.737L56.1038 275.285ZM591.666 141.868L573.992 118.505C571.817 115.632 567.686 115.057 564.808 117.231L447.629 205.89L307.328 163.242L307.224 163.208L304.781 162.859L261.592 156.669C251.074 170.514 234.442 179.49 215.822 179.49C197.197 179.49 180.566 170.514 170.048 156.669L135.682 151.856C132.578 151.856 126.4 157.597 124.733 161.504L2.41849 265.204C0.707827 266.652 -0.0735088 268.81 0.145158 270.897C-0.264175 272.82 0.189163 274.902 1.54383 276.509L108.533 402.702C110.866 405.456 115.024 405.794 117.772 403.468L124.312 397.922V443.614C124.312 447.219 127.262 450.17 130.868 450.17H146.242L121.678 859.719C121.46 863.319 124.23 866.439 127.83 866.658L178.09 869.669C181.69 869.887 184.81 867.117 185.029 863.517L208.868 466.07H232.606L246.818 862.997C246.949 866.598 250.004 869.439 253.604 869.313L303.929 867.51C307.53 867.385 310.37 864.33 310.245 860.725L295.548 450.17H300.77C304.377 450.17 307.328 447.219 307.328 443.614V207.568L451.174 251.294L452.929 251.824C454.18 252.205 455.464 252.19 456.638 251.845C457.277 251.633 457.894 251.31 458.464 250.878L459.67 249.966L590.393 151.052C593.273 148.877 593.846 144.742 591.666 141.868" fill="#35507C"/>
<path d="M456.638 251.845C454.825 252.469 452.813 252.255 451.174 251.294L452.929 251.823C454.18 252.206 455.464 252.19 456.638 251.845Z" fill="#35507C"/>
<path d="M161.628 93.6078C161.628 93.6078 171.377 78.1838 173.296 55.3878C173.296 55.3878 204.39 61.3158 223.33 46.1105C223.33 46.1105 243.074 50.2985 251.945 38.2211C251.945 38.2211 291.753 35.2518 286.94 24.3518C286.94 24.3518 289.209 5.59978 265.729 3.09045C265.729 3.09045 189.55 -12.7962 167.522 27.4691C167.522 27.4691 132.557 50.4465 161.628 93.6078Z" fill="#252D2B"/>
<path d="M270.536 33.6157C270.536 33.6157 287.344 69.0517 266.984 93.6077C266.984 93.6077 264.024 31.3183 254.362 33.6157" fill="#252D2B"/>
<path d="M197.239 87.9632C197.239 92.6646 194.343 96.4779 190.771 96.4779C187.199 96.4779 184.303 92.6646 184.303 87.9632C184.303 83.2606 187.199 79.4472 190.771 79.4472C194.343 79.4472 197.239 83.2606 197.239 87.9632Z" fill="black"/>
<path d="M248.694 87.9632C248.694 92.6646 245.798 96.4779 242.226 96.4779C238.654 96.4779 235.758 92.6646 235.758 87.9632C235.758 83.2606 238.654 79.4472 242.226 79.4472C245.798 79.4472 248.694 83.2606 248.694 87.9632Z" fill="black"/>
<path d="M252.692 58.9581L232.375 55.3221C231.431 55.1528 230.52 55.7888 230.351 56.7328C230.181 57.6768 230.816 58.5888 231.76 58.7568L252.077 62.3914C253.021 62.5608 253.933 61.9274 254.101 60.9821C254.271 60.0381 253.636 59.1274 252.692 58.9581Z" fill="black"/>
<path d="M174.112 60.7015L194.43 57.0669C195.374 56.8975 196.284 57.5322 196.454 58.4762C196.623 59.4215 195.988 60.3322 195.044 60.5015L174.727 64.1362C173.782 64.3042 172.871 63.6709 172.703 62.7269C172.534 61.7829 173.168 60.8709 174.112 60.7015Z" fill="black"/>
<path d="M229.652 135.468C229.652 143.176 223.401 149.422 215.698 149.422C207.99 149.422 201.745 143.176 201.745 135.468H229.652Z" fill="#EF8362"/>
<path d="M181.426 167.985L215.82 280.259L247.486 169.913C247.486 169.913 217.982 192.236 181.426 167.985Z" fill="white"/>
<path d="M202.429 177.241C202.429 177.241 216.074 202.806 229.466 177.842C229.466 177.842 213.207 181.266 202.429 177.241Z" fill="#993342"/>
<path d="M210.53 186.639L203.774 240.936L215.82 280.259L226.982 241.36L220.842 186.639H210.53Z" fill="#993342"/>
<path d="M628.616 121.493C628.616 129.567 617.873 136.111 604.623 136.111C591.371 136.111 580.629 129.567 580.629 121.493C580.629 113.42 591.371 106.876 604.623 106.876C617.873 106.876 628.616 113.42 628.616 121.493Z" fill="#F2C89C"/>
<path d="M163.927 155.811L158.345 200.187L172.297 208L168.391 233.45L215.378 298.395L215.819 280.259L181.426 167.986C181.426 167.986 171.147 160.02 170.049 156.67L163.927 155.811Z" fill="#6283B2"/>
<path d="M247.486 169.914C247.486 169.914 259.097 161.416 261.591 156.668L269.699 157.83V200.187L258.593 208.278L265.041 231.715L215.378 298.394L215.819 280.259L247.486 169.914Z" fill="#6283B2"/>
</svg>
