<svg width="320" height="446" viewBox="0 0 320 446" fill="none" xmlns="http://www.w3.org/2000/svg">
<path d="M262.37 156.988L253.291 256.397L262.37 332.237C262.37 343.388 251.783 352.512 238.842 352.512H162.767C149.827 352.512 139.238 343.388 139.238 332.237L153.924 253.727L139.238 156.988C139.238 148.237 145.748 140.752 154.806 137.913C157.08 137.204 159.532 136.781 162.08 136.731C173.276 144.907 187.766 149.841 203.608 149.841C219.098 149.841 233.292 145.144 244.391 137.289C247.606 137.964 250.586 139.215 253.135 140.92C258.644 144.571 262.252 150.264 262.35 156.649C262.37 156.768 262.37 156.869 262.37 156.988Z" fill="#35507C"/>
<path d="M235.542 118.889C234.172 120.884 232.703 122.754 231.124 124.464C224.092 132.14 215.09 136.73 205.278 136.73C195.24 136.73 186.056 131.909 178.968 123.929C177.57 122.372 176.256 120.678 175.027 118.874C176.746 97.8917 173.796 72.6717 173.796 72.6717C193.116 65.2677 205.278 43.0277 205.278 43.0277C205.278 43.0277 217.454 65.2677 236.771 72.6717C236.771 72.6717 233.807 97.8917 235.542 118.889Z" fill="#F2C89C"/>
<path d="M267.238 157.55C259.146 159.069 247.625 148.23 245.786 147.486C244.454 146.954 243.27 146.066 242.234 144.854C239.397 141.638 237.571 136.228 236.437 129.814C235.942 127.005 235.573 123.984 235.314 120.882C233.599 100.318 236.535 75.6358 236.535 75.6358C217.367 68.3838 205.277 46.6092 205.277 46.6092C205.277 46.6092 193.202 68.3838 174.021 75.6358C174.021 75.6358 176.955 100.318 175.241 120.865C175.069 122.95 174.846 124.985 174.575 126.94C173.206 136.648 170.491 144.578 165.471 147.164C165.25 147.293 165.015 147.39 164.781 147.486C162.942 148.23 151.422 159.069 143.33 157.55C143.33 157.55 149.398 148.585 154.025 127.424C157.626 110.98 160.353 87.1532 158.675 54.4278C158.675 54.4278 169.175 -1.47617 205.277 10.8772C242.246 0.586499 251.893 54.4278 251.893 54.4278C248.055 129.234 267.238 157.55 267.238 157.55Z" fill="#2B333A"/>
<path d="M170.461 186.854L160.43 194.481C154.566 198.937 146.122 197.786 141.666 191.923L23.4877 36.458C19.0303 30.5953 20.181 22.1526 26.0437 17.6953L36.0743 10.07C41.937 5.61263 50.381 6.76329 54.837 12.626L173.017 168.091C177.474 173.954 176.322 182.397 170.461 186.854Z" fill="#35507C"/>
<path d="M313.14 232.358L303.11 239.983C297.247 244.44 288.803 243.288 284.346 237.426L231.532 167.948C227.075 162.086 228.226 153.643 234.09 149.186L244.119 141.56C249.983 137.104 258.427 138.254 262.883 144.116L315.698 213.595C320.155 219.456 319.003 227.9 313.14 232.358Z" fill="#35507C"/>
<path d="M252.197 307.73L241.583 300.94C235.379 296.972 233.551 288.648 237.519 282.445L284.552 208.93C288.52 202.726 296.843 200.898 303.048 204.868L313.662 211.657C319.866 215.626 321.694 223.949 317.724 230.153L270.693 303.668C266.725 309.87 258.4 311.7 252.197 307.73Z" fill="#35507C"/>
<path d="M251.997 445.417H149.612C140.812 445.417 133.612 438.217 133.612 429.417V348.246C133.612 339.445 140.812 332.246 149.612 332.246H251.997C260.797 332.246 267.997 339.445 267.997 348.246V429.417C267.997 438.217 260.797 445.417 251.997 445.417Z" fill="#35507C"/>
<path d="M168.333 140.302C168.333 140.302 177.109 165.778 197.084 149.555C197.084 149.555 169.165 142.474 168.333 140.302Z" fill="white"/>
<path d="M205.284 149.816C205.284 149.816 219.201 171.356 234.149 143.208C234.149 143.208 208.526 149.814 205.284 149.816Z" fill="white"/>
<path d="M257.427 292.022C257.427 298.519 247.006 303.786 234.15 303.786C221.292 303.786 210.871 298.519 210.871 292.022C210.871 285.526 221.292 280.259 234.15 280.259C247.006 280.259 257.427 285.526 257.427 292.022Z" fill="#F2C89C"/>
<path d="M46.556 11.7641C46.556 18.2614 36.1347 23.5281 23.2787 23.5281C10.4213 23.5281 0 18.2614 0 11.7641C0 5.26674 10.4213 7.55928e-05 23.2787 7.55928e-05C36.1347 7.55928e-05 46.556 5.26674 46.556 11.7641Z" fill="#F2C89C"/>
<path d="M191.041 153.432L203.609 182.852L210.871 155.412L204.905 148.896H197.085L191.041 153.432Z" fill="white"/>
<path d="M190.962 87.0114C190.962 89.9394 189.213 92.3074 187.07 92.3074C184.908 92.3074 183.178 89.9394 183.178 87.0114C183.178 84.1088 184.908 81.7421 187.07 81.7421C189.213 81.7421 190.962 84.1088 190.962 87.0114Z" fill="#1C1B1A"/>
<path d="M225.997 87.2927C225.997 90.3767 224.175 92.8714 221.939 92.8714C219.685 92.8714 217.86 90.3767 217.86 87.2927C217.86 84.2354 219.685 81.742 221.939 81.742C224.175 81.742 225.997 84.2354 225.997 87.2927Z" fill="#1C1B1A"/>
<path d="M217.264 115.853C217.264 122.459 211.892 127.831 205.284 127.831C198.658 127.831 193.304 122.459 193.304 115.853H217.264Z" fill="#EF8362"/>
<path d="M194.688 70.272C194.688 70.5267 194.53 70.7627 194.274 70.8413L179.884 75.292C179.57 75.3893 179.237 75.2133 179.14 74.9C179.12 74.8413 179.12 74.7827 179.12 74.724C179.12 74.468 179.276 74.2333 179.532 74.1547L193.922 69.704C194.236 69.6053 194.569 69.7827 194.668 70.096C194.688 70.1547 194.688 70.2133 194.688 70.272Z" fill="#1C1B1A"/>
<path d="M229.889 75.6795C229.889 75.7395 229.889 75.7981 229.869 75.8568C229.771 76.1701 229.437 76.3461 229.144 76.2488L214.361 71.6795C214.125 71.6008 213.969 71.3675 213.969 71.1115C213.969 71.0528 213.969 70.9928 213.988 70.9341C214.067 70.6208 214.4 70.4448 214.713 70.5421L229.477 75.1115C229.733 75.1901 229.889 75.4261 229.889 75.6795Z" fill="#1C1B1A"/>
</svg>
