<svg width="956" height="741" viewBox="0 0 956 741" fill="none" xmlns="http://www.w3.org/2000/svg">
<path d="M0 740.371H955.476V-2.20648e-05H0V740.371Z" fill="url(#paint0_linear_197_1323)"/>
<path d="M405.739 265.989C422.925 265.989 436.862 279.927 436.862 297.112C436.862 314.315 422.925 328.252 405.739 328.252C388.538 328.252 374.601 314.315 374.601 297.112C374.601 279.927 388.538 265.989 405.739 265.989ZM634.303 220.14C627.423 199.708 617.874 180.487 606.078 162.916C562.809 98.4415 489.223 55.9975 405.739 55.9975C272.561 55.9975 164.606 163.951 164.606 297.112C164.606 430.291 272.561 538.227 405.739 538.227C538.899 538.227 646.854 430.291 646.854 297.112C646.854 270.203 642.447 244.311 634.303 220.14" fill="#1C323F"/>
<path d="M405.739 265.989C422.925 265.989 436.862 279.927 436.862 297.112C436.862 314.315 422.925 328.252 405.739 328.252C388.538 328.252 374.601 314.315 374.601 297.112C374.601 279.927 388.538 265.989 405.739 265.989ZM634.303 220.14C627.423 199.708 617.874 180.487 606.078 162.916C562.809 98.4415 489.223 55.9975 405.739 55.9975C272.561 55.9975 164.606 163.951 164.606 297.112C164.606 430.291 272.561 538.227 405.739 538.227C538.899 538.227 646.854 430.291 646.854 297.112C646.854 270.203 642.447 244.311 634.303 220.14V220.14Z" stroke="#1E1E1E" stroke-width="0.666667" stroke-miterlimit="10"/>
<path d="M405.739 328.252C388.538 328.252 374.601 314.314 374.601 297.112C374.601 279.926 388.538 265.989 405.739 265.989C422.925 265.989 436.862 279.926 436.862 297.112C436.862 314.314 422.925 328.252 405.739 328.252ZM405.739 211.872C358.661 211.872 320.482 250.033 320.482 297.112C320.482 344.19 358.661 382.352 405.739 382.352C452.801 382.352 490.979 344.19 490.979 297.112C490.979 250.033 452.801 211.872 405.739 211.872Z" fill="white"/>
<path d="M405.739 328.252C388.538 328.252 374.601 314.314 374.601 297.112C374.601 279.926 388.538 265.989 405.739 265.989C422.925 265.989 436.862 279.926 436.862 297.112C436.862 314.314 422.925 328.252 405.739 328.252ZM405.739 211.872C358.661 211.872 320.482 250.033 320.482 297.112C320.482 344.19 358.661 382.352 405.739 382.352C452.801 382.352 490.979 344.19 490.979 297.112C490.979 250.033 452.801 211.872 405.739 211.872Z" stroke="white" stroke-width="1.33333" stroke-miterlimit="10"/>
<path d="M382.759 337.312L384.494 338.472L378.152 347.959C377.498 348.938 376.682 349.658 375.706 350.119C374.738 350.579 373.688 350.751 372.557 350.636C371.429 350.516 370.303 350.081 369.179 349.329C368.055 348.578 367.222 347.704 366.68 346.707C366.142 345.706 365.897 344.669 365.947 343.595C366.004 342.52 366.36 341.493 367.015 340.513L373.357 331.027L375.092 332.187L368.843 341.533C368.376 342.233 368.113 342.958 368.056 343.71C368.003 344.457 368.156 345.176 368.516 345.869C368.884 346.561 369.466 347.173 370.264 347.706C371.061 348.239 371.85 348.544 372.629 348.619C373.412 348.69 374.136 348.557 374.8 348.218C375.473 347.878 376.043 347.359 376.511 346.659L382.759 337.312Z" fill="#FFAB00"/>
<path d="M371.071 334.954L364.1 345.382C360.431 350.871 361.775 354.774 365.4 357.196C369.235 359.76 373.591 359.442 377.225 354.004L384.127 343.68L381.815 342.135L374.809 352.616C372.192 356.531 369.352 357.14 366.725 355.384C364.361 353.804 363.725 350.946 366.376 346.98L373.383 336.499L371.071 334.954Z" stroke="#FFAB00" stroke-width="1.33333" stroke-miterlimit="10"/>
<path d="M395.645 344.562L395.773 342.715L408.668 343.61L408.54 345.457L403.133 345.082L402.069 360.428L399.987 360.283L401.051 344.937L395.645 344.562Z" fill="#FFAB00"/>
<path d="M399.274 368.851L402.049 369.043L403.359 350.131L409.854 350.582L410.015 348.248L394.286 347.158L394.125 349.49L400.586 349.939L399.274 368.851Z" stroke="#FFAB00" stroke-width="1.33333" stroke-miterlimit="10"/>
<path d="M426.935 357.232L419.608 341.633L424.879 339.158C426.103 338.583 427.207 338.334 428.191 338.411C429.178 338.48 430.035 338.8 430.761 339.37C431.488 339.939 432.067 340.684 432.498 341.603C432.93 342.522 433.135 343.446 433.112 344.374C433.094 345.299 432.802 346.168 432.235 346.98C431.665 347.787 430.774 348.475 429.56 349.045L425.782 350.82L424.995 349.144L428.712 347.398C429.55 347.004 430.155 346.544 430.527 346.016C430.899 345.488 431.083 344.924 431.08 344.324C431.08 343.717 430.933 343.101 430.64 342.476C430.347 341.851 429.967 341.348 429.502 340.965C429.043 340.58 428.491 340.368 427.847 340.33C427.2 340.286 426.453 340.464 425.605 340.862L422.284 342.422L428.824 356.345L426.935 357.232Z" fill="#FFAB00"/>
<path d="M430.874 364.879L433.362 363.711L429.736 355.989C430.374 355.863 431.074 355.57 431.818 355.221C434.249 354.078 436.058 352.355 436.716 350.337C437.218 348.879 437.088 347.265 436.268 345.519C435.461 343.803 434.176 342.698 432.686 342.281C431.06 341.789 428.989 342.062 426.529 343.217C424.528 344.158 423.034 345.069 421.928 345.833L430.874 364.879ZM425.262 346.466C425.637 346.15 426.426 345.674 427.513 345.163C430.258 343.874 432.638 344.258 433.834 346.803C435.082 349.462 433.938 351.781 430.936 353.191C430.106 353.581 429.393 353.846 428.782 353.959L425.262 346.466Z" stroke="#FFAB00" stroke-width="1.33333" stroke-miterlimit="10"/>
<path d="M453.773 338.848L439.864 328.672L441.096 326.988L453.511 336.071L458.242 329.605L459.736 330.699L453.773 338.848Z" fill="#FFAB00"/>
<path d="M460.896 343.67L467.892 334.108L466.032 332.746L460.658 340.09L445.332 328.877L443.708 331.096L460.896 343.67Z" stroke="#FFAB00" stroke-width="1.33333" stroke-miterlimit="10"/>
<path d="M346.756 480.856C346.756 529.011 307.719 568.048 259.563 568.048C211.408 568.048 172.372 529.011 172.372 480.856C172.372 432.701 211.408 393.663 259.563 393.663C307.719 393.663 346.756 432.701 346.756 480.856Z" fill="white"/>
<path d="M346.756 480.856C346.756 529.011 307.719 568.048 259.563 568.048C211.408 568.048 172.372 529.011 172.372 480.856C172.372 432.701 211.408 393.663 259.563 393.663C307.719 393.663 346.756 432.701 346.756 480.856Z" stroke="white" stroke-width="1.33333" stroke-miterlimit="10"/>
<path d="M300.055 480.856L243.761 448.355V513.356L300.055 480.856Z" fill="#8C8C8C"/>
<path d="M300.055 480.856L243.761 448.355V513.356L300.055 480.856Z" stroke="#8C8C8C" stroke-width="1.33333" stroke-miterlimit="10"/>
<path d="M301.82 233.667C306.078 225.349 311.646 217.733 317.906 210.796C324.178 203.855 331.284 197.669 339.019 192.392C342.928 189.813 347.006 187.499 351.194 185.412C355.411 183.38 359.751 181.612 364.188 180.129C373.076 177.195 382.368 175.563 391.692 175.113C387.043 175.521 382.399 176.028 377.838 177.004C373.247 177.829 368.758 179.117 364.33 180.549C359.923 182.061 355.619 183.856 351.44 185.911C347.29 188.019 343.258 190.356 339.39 192.944C331.66 198.129 324.535 204.227 318.234 211.095C315.074 214.52 312.124 218.139 309.375 221.903C306.61 225.652 304.016 229.547 301.82 233.667Z" fill="white"/>
<path d="M275.93 220.809C281.439 210.13 288.615 200.353 296.666 191.437C304.735 182.52 313.879 174.578 323.826 167.804C328.847 164.484 334.084 161.504 339.467 158.817C344.886 156.201 350.462 153.924 356.166 152.012C367.59 148.237 379.53 146.117 391.519 145.501C385.539 146.009 379.563 146.646 373.69 147.886C367.786 148.942 362.007 150.594 356.306 152.432C350.634 154.373 345.092 156.676 339.714 159.316C334.368 162.024 329.178 165.026 324.196 168.356C314.254 175.037 305.094 182.893 296.992 191.734C292.932 196.146 289.139 200.804 285.61 205.652C282.063 210.485 278.74 215.504 275.93 220.809Z" fill="white"/>
<path d="M247.333 204.39C253.941 191.634 262.53 179.957 272.158 169.301C281.808 158.645 292.744 149.158 304.637 141.067C310.637 137.098 316.894 133.533 323.326 130.318C329.801 127.187 336.465 124.462 343.281 122.173C356.934 117.659 371.204 115.11 385.537 114.347C378.386 114.945 371.238 115.697 364.214 117.167C357.15 118.426 350.24 120.399 343.42 122.593C336.637 124.913 330.008 127.663 323.572 130.817C317.178 134.053 310.966 137.641 305.006 141.619C293.118 149.617 282.168 159.018 272.484 169.598C267.632 174.878 263.097 180.449 258.88 186.249C254.648 192.034 250.685 198.041 247.333 204.39Z" fill="white"/>
<path d="M510.573 361.549C506.034 369.716 500.211 377.139 493.717 383.859C487.214 390.584 479.901 396.523 471.99 401.535C467.995 403.979 463.843 406.155 459.586 408.096C455.302 409.984 450.903 411.603 446.419 412.935C437.435 415.564 428.094 416.879 418.761 417.012C423.421 416.763 428.081 416.413 432.671 415.593C437.286 414.925 441.818 413.791 446.293 412.509C450.749 411.148 455.11 409.501 459.357 407.589C463.577 405.625 467.686 403.427 471.641 400.969C479.542 396.051 486.87 390.199 493.401 383.551C496.674 380.233 499.747 376.719 502.622 373.049C505.514 369.396 508.237 365.592 510.573 361.549Z" fill="white"/>
<path d="M536.01 375.28C530.142 385.765 522.638 395.293 514.288 403.929C505.921 412.568 496.512 420.195 486.34 426.627C481.206 429.772 475.872 432.572 470.401 435.075C464.897 437.505 459.246 439.591 453.482 441.308C441.934 444.692 429.929 446.405 417.926 446.613C423.921 446.308 429.916 445.875 435.826 444.836C441.764 443.981 447.596 442.527 453.356 440.884C459.09 439.136 464.705 437.023 470.172 434.568C475.605 432.043 480.897 429.219 485.988 426.061C496.15 419.723 505.574 412.183 513.972 403.621C518.18 399.349 522.129 394.824 525.821 390.1C529.53 385.389 533.021 380.488 536.01 375.28Z" fill="white"/>
<path d="M564.032 392.663C556.994 405.187 548.011 416.565 538.027 426.887C528.02 437.208 516.77 446.317 504.608 454C498.475 457.763 492.102 461.112 485.563 464.107C478.986 467.016 472.232 469.512 465.343 471.568C451.543 475.615 437.195 477.677 422.843 477.952C430.011 477.597 437.18 477.089 444.251 475.857C451.352 474.841 458.328 473.104 465.218 471.143C472.076 469.056 478.795 466.532 485.335 463.6C491.835 460.583 498.166 457.209 504.256 453.435C516.41 445.847 527.674 436.824 537.712 426.579C542.74 421.468 547.462 416.055 551.875 410.401C556.3 404.763 560.466 398.895 564.032 392.663Z" fill="white"/>
<path d="M643.44 72.1216L706.4 173.776C718.781 192.903 726.765 210.031 734.743 229.104C739.152 239.65 745.692 261.814 748.224 274.122L749.985 292.782L749.945 298.662L749.531 357.584C749.484 364.975 743.4 370.984 736 370.923C728.609 370.878 722.601 364.792 722.647 357.402L723.049 299.011C723.34 256.563 680.388 185.272 680.388 185.272L617.859 88.6816C613.3 81.6389 615.325 72.1709 622.369 67.6109C625.891 65.3322 629.999 64.7002 633.835 65.5216C637.645 66.3376 641.16 68.6002 643.44 72.1216Z" fill="#FFAB00"/>
<path d="M643.44 72.1216L706.4 173.776C718.781 192.903 726.765 210.031 734.743 229.104C739.152 239.65 745.692 261.814 748.224 274.122L749.985 292.782L749.945 298.662L749.531 357.584C749.484 364.975 743.4 370.984 736 370.923C728.609 370.878 722.601 364.792 722.647 357.402L723.049 299.011C723.34 256.563 680.388 185.272 680.388 185.272L617.859 88.6816C613.3 81.6389 615.325 72.1709 622.369 67.6109C625.891 65.3322 629.999 64.7002 633.835 65.5216C637.645 66.3376 641.16 68.6002 643.44 72.1216Z" stroke="white" stroke-width="2.66667" stroke-miterlimit="10"/>
<path d="M661.547 61.3319C672.173 77.7465 667.48 99.6679 651.067 110.295C634.651 120.92 612.731 116.228 602.104 99.8132C591.477 83.3985 596.171 61.4772 612.584 50.8505C629 40.2239 650.92 44.9172 661.547 61.3319Z" fill="#84642C"/>
<path d="M661.547 61.3319C672.173 77.7465 667.48 99.6679 651.067 110.295C634.651 120.92 612.731 116.228 602.104 99.8132C591.477 83.3985 596.171 61.4772 612.584 50.8505C629 40.2239 650.92 44.9172 661.547 61.3319Z" stroke="white" stroke-width="2.66667" stroke-miterlimit="10"/>
<path d="M749.045 352.294C754.156 360.19 751.9 370.734 744.004 375.846C736.108 380.957 725.564 378.701 720.453 370.805C715.341 362.909 717.599 352.365 725.493 347.253C733.389 342.142 743.933 344.399 749.045 352.294Z" fill="#84642C"/>
<path d="M749.045 352.294C754.156 360.19 751.9 370.734 744.004 375.846C736.108 380.957 725.564 378.701 720.453 370.805C715.341 362.909 717.599 352.365 725.493 347.253C733.389 342.142 743.933 344.399 749.045 352.294Z" stroke="white" stroke-width="2.66667" stroke-miterlimit="10"/>
<path d="M748.199 681.07H89.3217C71.163 681.07 56.3043 666.212 56.3043 648.052C56.3043 629.892 71.163 615.035 89.3217 615.035H748.199C766.358 615.035 781.216 629.892 781.216 648.052C781.216 666.212 766.358 681.07 748.199 681.07Z" fill="white"/>
<path d="M748.199 681.07H89.3217C71.163 681.07 56.3043 666.212 56.3043 648.052C56.3043 629.892 71.163 615.035 89.3217 615.035H748.199C766.358 615.035 781.216 629.892 781.216 648.052C781.216 666.212 766.358 681.07 748.199 681.07Z" stroke="white" stroke-width="1.33333" stroke-miterlimit="10"/>
<path d="M820.738 630.683C820.738 632.688 819.113 634.313 817.107 634.313C815.102 634.313 813.478 632.688 813.478 630.683C813.478 628.677 815.102 627.052 817.107 627.052C819.113 627.052 820.738 628.677 820.738 630.683Z" fill="white"/>
<path d="M820.738 630.683C820.738 632.688 819.113 634.313 817.107 634.313C815.102 634.313 813.478 632.688 813.478 630.683C813.478 628.677 815.102 627.052 817.107 627.052C819.113 627.052 820.738 628.677 820.738 630.683Z" stroke="white" stroke-width="2.66667" stroke-miterlimit="10"/>
<path d="M820.738 648.612C820.738 650.618 819.113 652.243 817.107 652.243C815.102 652.243 813.478 650.618 813.478 648.612C813.478 646.607 815.102 644.982 817.107 644.982C819.113 644.982 820.738 646.607 820.738 648.612Z" fill="white"/>
<path d="M820.738 648.612C820.738 650.618 819.113 652.243 817.107 652.243C815.102 652.243 813.478 650.618 813.478 648.612C813.478 646.607 815.102 644.982 817.107 644.982C819.113 644.982 820.738 646.607 820.738 648.612Z" stroke="white" stroke-width="2.66667" stroke-miterlimit="10"/>
<path d="M820.738 666.541C820.738 668.546 819.113 670.172 817.107 670.172C815.102 670.172 813.478 668.546 813.478 666.541C813.478 664.536 815.102 662.91 817.107 662.91C819.113 662.91 820.738 664.536 820.738 666.541Z" fill="white"/>
<path d="M820.738 666.541C820.738 668.546 819.113 670.172 817.107 670.172C815.102 670.172 813.478 668.546 813.478 666.541C813.478 664.536 815.102 662.91 817.107 662.91C819.113 662.91 820.738 664.536 820.738 666.541Z" stroke="white" stroke-width="2.66667" stroke-miterlimit="10"/>
<path d="M884.855 162.177H897.11Z" fill="white"/>
<path d="M884.855 162.177H897.11" stroke="white" stroke-width="1.33333" stroke-miterlimit="10"/>
<path d="M884.855 195.029H897.11Z" fill="white"/>
<path d="M884.855 195.029H897.11" stroke="white" stroke-width="1.33333" stroke-miterlimit="10"/>
<path d="M876.439 227.88H905.528Z" fill="white"/>
<path d="M876.439 227.88H905.528" stroke="white" stroke-width="1.33333" stroke-miterlimit="10"/>
<path d="M884.855 264.873H897.11Z" fill="white"/>
<path d="M884.855 264.873H897.11" stroke="white" stroke-width="1.33333" stroke-miterlimit="10"/>
<path d="M884.855 301.865H897.11Z" fill="white"/>
<path d="M884.855 301.865H897.11" stroke="white" stroke-width="1.33333" stroke-miterlimit="10"/>
<path d="M876.439 338.858H905.528Z" fill="white"/>
<path d="M876.439 338.858H905.528" stroke="white" stroke-width="1.33333" stroke-miterlimit="10"/>
<path d="M884.855 375.851H897.11Z" fill="white"/>
<path d="M884.855 375.851H897.11" stroke="white" stroke-width="1.33333" stroke-miterlimit="10"/>
<path d="M884.855 412.844H897.11Z" fill="white"/>
<path d="M884.855 412.844H897.11" stroke="white" stroke-width="1.33333" stroke-miterlimit="10"/>
<path d="M876.439 449.837H905.528Z" fill="white"/>
<path d="M876.439 449.837H905.528" stroke="white" stroke-width="1.33333" stroke-miterlimit="10"/>
<path d="M874.906 100.607H907.059H903.995" fill="white"/>
<path d="M874.906 100.607H907.059H903.995" stroke="white" stroke-width="1.33333" stroke-miterlimit="10"/>
<path d="M890.983 100.608V449.837Z" fill="white"/>
<path d="M890.983 100.608V449.837" stroke="white" stroke-width="2.66667" stroke-miterlimit="10"/>
<path d="M109.652 648.567H743.919Z" fill="white"/>
<path d="M109.652 648.567H743.919" stroke="#8C8C8C" stroke-width="1.33333" stroke-miterlimit="10"/>
<path d="M124.092 648.567C124.092 656.542 117.627 663.007 109.652 663.007C101.676 663.007 95.2109 656.542 95.2109 648.567C95.2109 640.592 101.676 634.126 109.652 634.126C117.627 634.126 124.092 640.592 124.092 648.567Z" fill="#8C8C8C"/>
<path d="M124.092 648.567C124.092 656.542 117.627 663.007 109.652 663.007C101.676 663.007 95.2109 656.542 95.2109 648.567C95.2109 640.592 101.676 634.126 109.652 634.126C117.627 634.126 124.092 640.592 124.092 648.567Z" stroke="#8C8C8C" stroke-width="1.33333" stroke-miterlimit="10"/>
<path d="M866.54 176.281H916.989V125.832H866.54V176.281Z" fill="url(#paint1_linear_197_1323)"/>
<path d="M916.989 176.281H866.54V125.832H916.989V176.281Z" stroke="white" stroke-width="2.66667" stroke-miterlimit="10"/>
<path d="M882.86 151.965H899.107" stroke="white" stroke-width="1.33333" stroke-miterlimit="10"/>
<path d="M882.86 141.752H899.107" stroke="white" stroke-width="1.33333" stroke-miterlimit="10"/>
<path d="M882.86 162.177H899.107" stroke="white" stroke-width="1.33333" stroke-miterlimit="10"/>
<defs>
<linearGradient id="paint0_linear_197_1323" x1="-0.000293333" y1="370.185" x2="955.476" y2="370.185" gradientUnits="userSpaceOnUse">
<stop stop-color="#00ACC1"/>
<stop offset="1" stop-color="#00537D"/>
</linearGradient>
<linearGradient id="paint1_linear_197_1323" x1="866.54" y1="151.057" x2="916.989" y2="151.057" gradientUnits="userSpaceOnUse">
<stop stop-color="#4283B0"/>
<stop offset="0.323091" stop-color="#4283B0"/>
<stop offset="1" stop-color="#005794"/>
</linearGradient>
</defs>
</svg>
